<?xml version="1.0" encoding="UTF-8" standalone="no"?>
<svg
   xmlns:dc="http://purl.org/dc/elements/1.1/"
   xmlns:cc="http://creativecommons.org/ns#"
   xmlns:rdf="http://www.w3.org/1999/02/22-rdf-syntax-ns#"
   xmlns:svg="http://www.w3.org/2000/svg"
   xmlns="http://www.w3.org/2000/svg"
   xmlns:sodipodi="http://sodipodi.sourceforge.net/DTD/sodipodi-0.dtd"
   xmlns:inkscape="http://www.inkscape.org/namespaces/inkscape"
   width="210mm"
   height="297mm"
   viewBox="0 0 210 297"
   version="1.1"
   id="svg8"
   inkscape:version="1.0.1 (3bc2e813f5, 2020-09-07)"
   sodipodi:docname="innlevering_inkscape.svg">
  <defs
     id="defs2">
    <inkscape:path-effect
       effect="spiro"
       id="path-effect108"
       is_visible="true"
       lpeversion="1" />
  </defs>
  <sodipodi:namedview
     id="base"
     pagecolor="#ffffff"
     bordercolor="#666666"
     borderopacity="1.0"
     inkscape:pageopacity="0.0"
     inkscape:pageshadow="2"
     inkscape:zoom="0.76095916"
     inkscape:cx="159.25672"
     inkscape:cy="584.81067"
     inkscape:document-units="mm"
     inkscape:current-layer="layer1"
     inkscape:document-rotation="0"
     showgrid="false"
     inkscape:window-width="1920"
     inkscape:window-height="986"
     inkscape:window-x="-11"
     inkscape:window-y="-11"
     inkscape:window-maximized="1" />
  <metadata
     id="metadata5">
    <rdf:RDF>
      <cc:Work
         rdf:about="">
        <dc:format>image/svg+xml</dc:format>
        <dc:type
           rdf:resource="http://purl.org/dc/dcmitype/StillImage" />
        <dc:title></dc:title>
      </cc:Work>
    </rdf:RDF>
  </metadata>
  <g
     inkscape:label="Lag 1"
     inkscape:groupmode="layer"
     id="layer1">
    <path
       style="fill:none;stroke:#000000;stroke-width:0.197594px;stroke-linecap:butt;stroke-linejoin:miter;stroke-opacity:1"
       d="m 56.959996,133.44137 c 1.590022,-0.87573 3.187879,-1.75959 4.903707,-2.35205 1.715827,-0.59246 3.57358,-0.884 5.356266,-0.54179 2.145521,0.41186 4.072137,1.74907 5.32248,3.54059 1.250343,1.79152 1.838748,4.00931 1.78058,6.19323 -0.0446,1.6744 -0.467757,3.35701 -1.356488,4.77678 -0.88873,1.41977 -2.261957,2.56011 -3.869607,3.03028 -0.803825,0.23509 -1.658562,0.30202 -2.486422,0.17535 -0.827861,-0.12667 -1.627527,-0.44846 -2.300891,-0.94643 -0.673364,-0.49798 -1.217848,-1.17279 -1.544379,-1.94401 -0.326531,-0.77121 -0.431885,-1.63748 -0.280646,-2.46121 0.167708,-0.91343 0.639526,-1.74804 1.219061,-2.47372 0.579536,-0.72568 1.267778,-1.35555 1.937855,-1.99857 3.640406,-3.49339 6.967147,-7.56311 11.583778,-9.59855 2.308315,-1.01772 4.920995,-1.46872 7.384433,-0.92507 1.231718,0.27182 2.413271,0.79096 3.41905,1.55216 1.005778,0.7612 1.832182,1.76692 2.341908,2.9207 0.877211,1.98559 0.776435,4.27642 0.297301,6.39361 -0.479133,2.11719 -1.313188,4.13749 -1.875759,6.23405 -1.268611,4.72779 -1.111568,9.82627 0.431774,14.47164 1.543342,4.64538 4.465387,8.82106 8.291904,11.87379 3.826519,3.05273 8.542719,4.97319 13.411819,5.4765 4.86909,0.50332 9.87434,-0.41034 14.25812,-2.58839 4.38378,-2.17804 8.13267,-5.61173 10.69885,-9.78019 2.56617,-4.16847 3.94321,-9.05782 3.94435,-13.95285 0.001,-4.89504 -1.37185,-9.78123 -3.90992,-13.96687 -2.53807,-4.18564 -6.23253,-7.65976 -10.5593,-9.94897 -3.5097,-1.85691 -7.46869,-2.94253 -11.43729,-2.81492 -3.9686,0.12761 -7.93654,1.51495 -10.92419,4.1303 -1.93103,1.6904 -3.430665,3.87039 -4.314949,6.27962 -0.884283,2.40922 -1.150979,5.0428 -0.76357,7.57978 0.387409,2.53697 1.428514,4.97185 2.998319,7.00213 1.5698,2.03028 3.66518,3.65125 6.02634,4.65687 1.52517,0.64957 3.16761,1.04579 4.82521,1.06663 1.65761,0.0208 3.33027,-0.34156 4.78775,-1.1314 1.45748,-0.78985 2.69049,-2.01616 3.40534,-3.51184 0.71485,-1.49569 0.89104,-3.25892 0.39859,-4.84183 -0.43719,-1.40529 -1.39246,-2.63825 -2.62927,-3.43592 -1.23682,-0.79766 -2.74411,-1.15897 -4.21072,-1.03638 -1.4131,0.11812 -2.77788,0.6772 -3.90564,1.53683 -1.12777,0.85963 -2.02059,2.01286 -2.62665,3.29485 -1.21212,2.56398 -1.25641,5.57021 -0.57076,8.32214 1.25027,5.01809 4.86843,9.30529 9.41327,11.77285 4.54484,2.46756 9.93606,3.18376 15.05282,2.43326 8.34476,-1.22396 15.74449,-6.10281 23.99149,-7.86916 4.1235,-0.88317 8.5347,-0.94548 12.45091,0.61866 1.95811,0.78207 3.76623,1.96793 5.18703,3.52585 1.42081,1.55793 2.44458,3.49329 2.83046,5.56619 0.55253,2.96809 -0.23154,6.09493 -1.81387,8.66613 -1.58234,2.5712 -3.91595,4.61947 -6.48797,6.20047 -5.14404,3.16201 -11.17324,4.51507 -16.6904,6.96873 -5.69725,2.53375 -10.9821,6.2895 -17.12838,7.33915 -3.07314,0.52482 -6.33969,0.31495 -9.14085,-1.05366 -1.40059,-0.68431 -2.66863,-1.65337 -3.64853,-2.86569 -0.9799,-1.21231 -1.66603,-2.67014 -1.91447,-4.20903 -0.2777,-1.72012 -0.003,-3.51184 0.69046,-5.1104 0.69318,-1.59857 1.79432,-3.00627 3.11708,-4.14039 2.64553,-2.26823 6.09333,-3.40866 9.53791,-3.93648 3.44457,-0.52782 6.94691,-0.49431 10.42527,-0.70574 3.47836,-0.21142 7.0055,-0.68693 10.16612,-2.15464 3.41376,-1.58526 6.27158,-4.31082 8.09296,-7.60466 1.82138,-3.29384 2.60987,-7.13568 2.32012,-10.88839 -0.28976,-3.75271 -1.64593,-7.40591 -3.80361,-10.48994 -2.15768,-3.08402 -5.10496,-5.59795 -8.45101,-7.32153 -6.77294,-3.48879 -14.73739,-3.64043 -22.3469,-3.26658 -7.6095,0.37384 -15.35715,1.1841 -22.75743,-0.62699 -3.70015,-0.90554 -7.275463,-2.48308 -10.21398,-4.90717 -2.938518,-2.42408 -5.211563,-5.7308 -6.07194,-9.44171 -0.860377,-3.7109 -0.220344,-7.81507 2.020359,-10.89571 1.120352,-1.54032 2.620836,-2.80899 4.346262,-3.61563 1.725427,-0.80664 3.673906,-1.14455 5.565289,-0.91997 2.43121,0.28868 4.6608,1.46852 6.7459,2.75166 2.08511,1.28314 4.11535,2.70296 6.40792,3.56217 2.30583,0.86418 4.8094,1.12832 7.26747,0.98162 2.45808,-0.1467 4.87784,-0.69484 7.23348,-1.41222 4.71127,-1.43477 9.21546,-3.55205 14.02049,-4.63202 2.40251,-0.53998 4.88079,-0.81545 7.33339,-0.59547 2.45261,0.21998 4.88334,0.95032 6.94015,2.30427 2.05681,1.35396 3.72078,3.35455 4.4807,5.69681 0.75991,2.34226 0.56194,5.01995 -0.71118,7.12775 -0.98536,1.63139 -2.56883,2.86744 -4.34689,3.55364 -1.77806,0.6862 -3.74017,0.83865 -5.62705,0.5702 -3.77375,-0.53688 -7.13449,-2.68534 -10.01986,-5.17615 -7.1059,-6.13419 -12.12681,-14.60893 -19.99379,-19.730707 -5.96207,-3.881593 -13.38032,-5.53889 -20.39394,-4.346313 -7.01362,1.192577 -13.531809,5.27415 -17.489044,11.18629 -2.823669,4.21858 -4.318269,9.22385 -4.908742,14.26576 -0.590472,5.04192 -0.312689,10.14573 0.173368,15.19878 0.7041,7.31982 1.844947,14.65762 1.296943,21.99078 -0.274002,3.66658 -0.976781,7.31969 -2.32991,10.73845 -1.35313,3.41876 -3.372159,6.60189 -6.070092,9.0999 -3.415112,3.16204 -7.94851,5.16388 -12.60146,5.27136 -4.65295,0.10748 -9.373148,-1.75247 -12.50148,-5.19849 -1.564166,-1.72301 -2.724178,-3.81631 -3.319899,-6.06586 -0.59572,-2.24955 -0.62247,-4.65206 -0.04088,-6.90531 0.581586,-2.25325 1.774114,-4.35063 3.439091,-5.97643 1.664977,-1.6258 3.800399,-2.7715 6.08314,-3.22368 1.964469,-0.38913 4.016946,-0.26686 5.948851,0.26069 1.931906,0.52755 3.744812,1.4539 5.36343,2.63315 3.063637,2.23203 5.402096,5.32869 7.304362,8.60729 1.902265,3.27861 3.407649,6.76896 5.111927,10.15471 1.704278,3.38574 3.635716,6.70564 6.255197,9.44538 2.619481,2.73973 5.995807,4.88051 9.740749,5.46638 3.292876,0.51515 6.753658,-0.21949 9.593072,-1.96481 2.83941,-1.74533 5.04523,-4.47726 6.22382,-7.59484 1.17859,-3.11759 1.33542,-6.60051 0.51516,-9.83093 -0.82025,-3.23042 -2.6043,-6.19901 -5.01978,-8.4955 -3.62366,-3.44516 -8.517601,-5.29939 -13.448426,-6.12825 -4.930825,-0.82885 -9.963799,-0.71335 -14.963802,-0.71174 -5.652964,0.002 -11.45174,-0.17356 -16.693119,-2.2911 -2.620689,-1.05877 -5.068101,-2.60728 -6.98633,-4.68319 -1.91823,-2.07591 -3.288319,-4.69576 -3.680483,-7.4949 -0.322888,-2.30468 0.01863,-4.67364 0.782375,-6.87193 0.76375,-2.19829 1.939607,-4.23559 3.290728,-6.13038 2.702244,-3.7896 6.106402,-7.03561 8.825928,-10.81282 1.359764,-1.8886 2.549211,-3.91713 3.333013,-6.10835 0.783802,-2.19122 1.152223,-4.5549 0.860948,-6.86378 -0.291275,-2.30889 -1.268981,-4.55834 -2.91063,-6.20782 -1.641648,-1.649477 -3.96684,-2.652637 -6.290074,-2.517111 -1.357406,0.07918 -2.690613,0.540288 -3.806365,1.31741 -1.115751,0.777122 -2.010608,1.868001 -2.553723,3.114541 -0.543116,1.24653 -0.732726,2.64495 -0.540238,3.99097 0.192489,1.34602 0.766595,2.63547 1.6388,3.67858 1.319852,1.57847 3.288783,2.55002 5.326214,2.83718 2.037431,0.28715 4.134925,-0.0778 6.043258,-0.84714 3.816666,-1.53864 6.798402,-4.57352 9.676629,-7.51463 3.63861,-3.71811 7.314082,-7.428125 11.446817,-10.587924 4.132735,-3.159799 8.762802,-5.771427 13.808506,-7.038197 6.413944,-1.610279 13.282224,-0.963834 19.515964,1.243479 6.23373,2.207313 11.86169,5.920789 16.78855,10.331881 13.41066,12.006771 21.67547,28.958201 35.25223,40.776821 1.75504,1.52777 3.62297,2.99765 4.87409,4.95953 0.62556,0.98094 1.08571,2.08054 1.23592,3.23423 0.15021,1.15369 -0.0222,2.36355 -0.58541,3.38159 -0.73041,1.32038 -2.05843,2.2267 -3.47171,2.75541 -1.41328,0.52872 -2.92574,0.72182 -4.42058,0.92766 -13.26195,1.82621 -26.36358,4.95125 -39.72452,5.78768 -9.6136,0.60184 -19.49678,-0.0364 -28.412225,-3.68307 -3.115346,-1.27427 -6.10711,-2.92193 -8.632017,-5.14769 -2.524906,-2.22576 -4.571319,-5.05617 -5.574106,-8.2692 -0.660881,-2.11753 -0.859621,-4.38385 -0.526154,-6.57691 0.458879,-3.01783 1.890772,-5.79858 2.624253,-8.76167 0.366741,-1.48155 0.557215,-3.02545 0.351186,-4.53774 -0.20603,-1.5123 -0.832417,-2.996 -1.923132,-4.06362 -0.797106,-0.78023 -1.818698,-1.31585 -2.898834,-1.59413 -1.080136,-0.27828 -2.217255,-0.30488 -3.321237,-0.14564 -2.207962,0.31849 -4.245793,1.35794 -6.144515,2.529 -4.239656,2.61486 -8.031204,5.96579 -12.506142,8.15374 -2.237469,1.09397 -4.648292,1.88754 -7.132322,2.06822 -2.48403,0.18068 -5.048519,-0.27777 -7.195314,-1.54044 -1.440514,-0.84726 -2.697652,-2.08361 -3.323387,-3.63325 -0.312867,-0.77482 -0.462539,-1.61926 -0.399579,-2.45249 0.06296,-0.83322 0.342059,-1.65373 0.829127,-2.3327 0.647942,-0.90322 1.6605,-1.53283 2.754203,-1.73147 1.093704,-0.19864 2.256575,0.0318 3.201159,0.61784 0.944584,0.586 1.664713,1.51943 2.00858,2.5765 0.343867,1.05707 0.312217,2.22929 -0.07165,3.2725 -0.469161,1.27499 -1.416203,2.30321 -2.232476,3.38922 -0.408137,0.543 -0.789778,1.11136 -1.062746,1.73339 -0.272968,0.62202 -0.434546,1.30277 -0.387846,1.98045 0.0768,1.11446 0.728678,2.14895 1.633458,2.80416 0.90478,0.65521 2.039252,0.95087 3.156356,0.95173 1.117104,8.7e-4 2.220217,-0.27912 3.2593,-0.68928 1.039082,-0.41016 2.021583,-0.94922 3.00009,-1.48815 z"
       id="path106"
       inkscape:original-d="m 56.959996,133.44137 c 3.682868,0.52595 6.840179,-1.92904 10.259973,-2.89384 3.419795,-0.96481 4.735572,6.48941 7.10306,9.73382 2.367489,3.24441 -7.89209,1.75404 -11.838433,2.63076 -3.946341,0.87672 2.104809,-2.98133 3.156916,-4.47229 1.052107,-1.49097 16.486311,-4.03364 24.729169,-6.05076 8.24286,-2.01712 -1.052106,8.41864 -1.578458,12.62766 -0.526351,4.20903 24.378597,-12.27669 36.567597,-18.41534 12.189,-6.13864 -14.90746,0.87712 -22.36148,1.31538 -7.454024,0.43826 2.63095,17.01247 3.94614,25.5184 1.31518,8.50593 8.94479,-5.61209 13.41689,-8.41844 4.4721,-2.80634 -4.55979,-2.98133 -6.83999,-4.4723 -2.28019,-1.49096 -4.73517,8.76941 -7.10305,13.15382 -2.36789,4.38441 16.31093,9.47094 24.46609,14.20611 8.15517,4.73518 29.64013,1.22789 44.45989,1.84154 14.81977,0.61365 -16.6613,14.55708 -24.99224,21.83533 -8.33095,7.27825 -21.22129,-0.52596 -31.83223,-0.78923 -10.61094,-0.26328 22.62475,-10.69823 33.93684,-16.04765 11.31208,-5.34941 -1.22749,-24.20282 -1.84154,-36.30452 -0.61404,-12.10171 -32.97203,-22.44898 -49.45834,-33.67376 -16.486303,-11.224791 8.76941,4.20941 13.15382,6.31383 4.3844,2.1044 31.04319,6.31402 46.5645,9.47074 15.5213,3.15671 -13.32901,-0.70134 -19.9938,-1.05231 -6.66479,-0.35096 -13.329,-13.15361 -19.99379,-19.730707 -6.66481,-6.577114 -25.255127,4.560187 -37.882984,6.839977 -12.627859,2.27979 -3.156719,19.64322 -4.735374,29.46454 -1.578654,9.82131 -4.735174,27.88628 -7.103059,41.82913 -2.367883,13.94284 -12.627462,-14.73208 -18.941491,-22.09841 -6.314027,-7.36634 7.541718,1.92942 11.312281,2.89384 3.77056,0.96441 18.941687,22.44937 28.412235,33.67376 9.470542,11.22439 7.541713,-18.59053 11.312272,-27.88608 3.77056,-9.29557 -18.941286,-4.5598 -28.412228,-6.83999 -9.470945,-2.28019 -18.239758,-9.64593 -27.359932,-14.46919 -9.120175,-4.82326 5.261723,-30.34127 7.892288,-45.512191 2.630564,-15.17093 -3.507486,8.067871 -5.261526,12.101501 -1.754039,4.03364 14.030933,-3.68287 21.046101,-5.52459 7.01517,-1.84173 16.83708,-11.750551 25.255323,-17.626121 8.418234,-5.87556 24.203204,7.7171 36.304514,11.57536 12.10131,3.858261 23.50168,27.184741 35.25223,40.776821 11.75054,13.59207 3.68326,7.7171 5.5246,11.57535 1.84133,3.85826 -5.26133,2.45558 -7.89229,3.68307 -2.63096,1.22749 -26.48282,3.85865 -39.72452,5.78768 -13.2417,1.92902 -18.94129,-2.45518 -28.412225,-3.68307 -9.470947,-1.22789 -9.470552,-8.9444 -14.206123,-13.41689 -4.73557,-4.47249 -0.350572,-4.38441 -0.526154,-6.57691 -0.17558,-2.19249 0.701735,-11.57516 1.052307,-17.36303 0.35057,-5.78788 -8.242858,0.52635 -12.364586,0.78923 -4.121726,0.26288 -17.888988,5.78788 -26.833778,8.68152 -8.944791,2.89364 -1.929029,-5.6121 -2.893839,-8.41844 -0.96481,-2.80635 5.261723,3.15711 7.892288,4.73537 2.630565,1.57826 -2.455181,4.73556 -3.683068,7.10306 -1.227887,2.36749 7.366333,1.0525 11.049204,1.57846 z"
       inkscape:path-effect="#path-effect108" />
    <path
       style="fill:#ff0000;stroke-width:0.263077"
       d="m 115.29375,159.83449 c -1.7363,-0.10298 -3.82774,-0.27585 -4.64765,-0.38415 -1.49031,-0.19686 -1.49095,-0.19733 -2.30623,-1.72694 -0.89771,-1.68429 -1.66738,-3.69277 -1.485,-3.87515 0.0642,-0.0642 0.5443,0.0244 1.0669,0.19687 3.59149,1.1853 7.89855,0.5531 10.28624,-1.50982 3.85082,-3.32703 3.38403,-9.19015 -0.91027,-11.43352 -3.76217,-1.96538 -8.53002,-0.0753 -10.46352,4.14804 -0.80859,1.76619 -1.23346,4.11047 -1.058,5.83762 0.0772,0.75963 0.0435,1.38115 -0.0748,1.38115 -0.11832,0 -0.9294,-0.52583 -1.80241,-1.1685 -2.52098,-1.85584 -4.606599,-5.00537 -5.444305,-8.22157 -0.73303,-2.81432 -0.35395,-7.33651 0.802456,-9.57276 l 0.3632,-0.70237 2.312109,0.86602 c 4.97194,1.86227 9.32746,2.36272 17.96513,2.0642 3.54496,-0.12251 8.38432,-0.22515 10.75414,-0.2281 l 4.30877,-0.005 1.15183,1.98031 c 2.33893,4.02125 3.68869,9.62399 3.42513,14.21746 -0.13701,2.38799 -0.75395,5.80701 -1.16725,6.46885 -0.2237,0.35819 -7.81681,1.32733 -12.02724,1.53509 -5.8886,0.29055 -7.96608,0.31549 -11.0492,0.13262 z"
       id="path110" />
    <path
       style="fill:#ff0000;stroke-width:0.263077"
       d="m 52.551206,129.38365 c 6.32e-4,-0.10852 1.614183,-2.09146 3.585683,-4.40654 5.20891,-6.11665 7.770837,-10.2744 8.390908,-13.61758 0.12795,-0.68986 0.433702,-1.16553 1.00869,-1.56926 0.453797,-0.31865 3.491142,-3.18794 6.749659,-6.37621 8.61001,-8.424421 12.237068,-11.314491 17.489213,-13.935531 5.318628,-2.65421 8.357146,-3.38652 14.074571,-3.39207 3.20534,-0.003 4.65109,0.11868 6.75802,0.5693 9.58332,2.04968 18.9921,7.91335 27.23671,16.974291 1.29761,1.42608 2.25935,2.67971 2.13723,2.78586 -0.12212,0.10615 -2.01929,0.81317 -4.21592,1.57116 l -3.99388,1.37816 -3.76687,-3.79826 c -5.29927,-5.34343 -8.73216,-7.608571 -14.15839,-9.342191 -13.877739,-4.4338 -28.41542,2.16156 -33.665558,15.273151 -0.443325,1.10716 -1.009192,2.78754 -1.257479,3.73419 -0.380217,1.44967 -0.541157,1.72117 -1.020281,1.72117 -1.174378,0 -4.015872,1.08571 -6.065522,2.31759 -1.166913,0.70134 -3.847988,2.48556 -5.957944,3.96495 -2.109958,1.47939 -4.936504,3.26501 -6.281215,3.96804 -3.188268,1.66687 -7.051561,2.86176 -7.047625,2.17978 z"
       id="path112" />
    <path
       style="fill:#ff0000;stroke-width:0.263077"
       d="m 150.39891,118.34224 c -2.50274,-3.29604 -5.53966,-7.21099 -6.74873,-8.6999 -1.20907,-1.48892 -2.13482,-2.80984 -2.05722,-2.9354 0.32249,-0.5218 5.1553,-1.13425 7.85016,-0.99482 5.72411,0.29616 10.10056,3.08325 11.76408,7.49179 0.74097,1.96367 0.63562,4.89159 -0.23705,6.58837 -0.76559,1.48857 -2.29523,2.99039 -3.73602,3.66808 -2.33835,1.09986 -1.81788,1.48958 -6.83522,-5.11812 z"
       id="path114" />
    <path
       style="fill:#ff0000;stroke-width:0.263077"
       d="m 162.42866,152.49771 c -0.96729,-3.75494 -3.32911,-7.6959 -6.21136,-10.36436 -4.78495,-4.43002 -10.48802,-6.62075 -18.71288,-7.18824 -2.49911,-0.17242 -2.52328,-0.18072 -3.13745,-1.07704 -1.1412,-1.66549 -5.4158,-5.44776 -7.66025,-6.778 -4.13781,-2.45241 -9.20602,-3.7643 -13.38604,-3.46497 -5.36671,0.38431 -9.81168,2.67041 -12.67245,6.51756 -1.506809,2.02635 -1.251069,2.01292 -3.925215,0.20621 -4.406867,-2.97735 -7.605347,-8.52939 -7.605347,-13.20161 0,-6.14624 3.853867,-11.08427 9.415217,-12.06387 2.879995,-0.5073 5.412805,0.30899 10.304905,3.32115 5.04667,3.10733 7.15306,3.8032 11.53127,3.80949 2.89294,0.004 5.42707,-0.4129 8.96437,-1.47533 l 2.20126,-0.66114 1.3373,1.53056 c 2.58758,2.96151 7.69586,8.03406 9.38708,9.32139 3.54524,2.69861 8.2284,4.41196 11.14942,4.07904 1.16933,-0.13327 1.33379,-0.0824 1.84063,0.56881 3.76283,4.83488 8.56956,9.97877 13.88852,14.86272 2.43035,2.23157 3.23902,3.15696 3.88037,4.44043 1.83484,3.67182 0.5219,6.86563 -3.3885,8.24281 -1.07263,0.37776 -5.37378,1.18322 -6.33184,1.18574 -0.27696,7.5e-4 -0.54744,-0.56306 -0.86901,-1.81135 z"
       id="path116" />
    <path
       style="fill:#ff0000;stroke-width:0.263077"
       d="m 78.076588,125.54406 c 0.0075,-2.46482 0.291321,-5.58485 0.667823,-7.34116 0.177175,-0.82649 0.806491,-0.93099 2.51821,-0.41815 3.162407,0.94749 4.839307,4.68305 4.032585,8.98326 l -0.172279,0.91832 -2.014544,-0.13434 c -1.35563,-0.0904 -2.509308,-0.004 -3.527229,0.26464 l -1.512689,0.39899 z"
       id="path118" />
    <path
       style="fill:#ff0000;stroke-width:0.263077"
       d="m 86.828761,148.70351 c -3.202941,-3.64795 -4.627626,-8.75864 -3.657355,-13.11982 0.564798,-2.53866 2.112434,-6.87325 2.500193,-7.00251 0.165242,-0.055 0.880737,0.27224 1.58999,0.72736 3.736537,2.39773 4.338473,6.06156 2.136167,13.00234 -0.591729,1.8649 -1.205189,4.23259 -1.363244,5.26153 -0.158054,1.02894 -0.318402,1.90437 -0.356326,1.94541 -0.03792,0.041 -0.420167,-0.32541 -0.849425,-0.81431 z"
       id="path120" />
    <path
       style="fill:#ff0000;stroke-width:0.263077"
       d="m 109.76915,176.45655 c -0.74183,-0.17329 -0.79976,-0.2796 -0.96443,-1.76985 -0.5084,-4.60096 -3.66446,-9.57113 -7.84061,-12.34743 -2.610485,-1.73545 -4.947373,-2.7209 -8.689528,-3.66433 l -3.288452,-0.82904 -0.287237,-1.44609 c -0.15798,-0.79535 -0.370616,-2.36621 -0.472525,-3.4908 l -0.185286,-2.04472 1.444889,1.17688 c 3.931153,3.20197 10.825039,6.08385 17.389339,7.26933 1.81094,0.32704 1.87117,0.3645 3.62594,2.25547 3.68696,3.97313 8.18268,6.10668 14.06594,6.67534 2.26797,0.21922 6.73014,-0.007 8.07302,-0.40964 0.76998,-0.23075 -1.38126,1.97871 -3.53496,3.63062 -2.1563,1.65392 -6.33816,3.69798 -9.07613,4.43636 -2.20543,0.59476 -8.61116,0.94308 -10.25997,0.5579 z"
       id="path122" />
    <path
       style="fill:#ff0000;stroke-width:0.263077"
       d="m 90.4526,191.78886 c -2.662862,-0.74223 -4.985791,-2.20106 -7.524921,-4.72575 -2.698536,-2.6832 -4.039793,-4.60523 -6.560581,-9.40141 l -1.761046,-3.35067 0.948175,-1.56086 c 1.936508,-3.18783 3.6135,-8.45417 4.02897,-12.65238 l 0.195263,-1.97306 4.169721,0.0356 c 4.68041,0.04 4.54799,-0.0117 5.29347,2.06895 2.798484,7.81069 10.04407,14.33483 17.962499,16.17396 1.30763,0.30371 1.38091,0.3649 1.37659,1.14954 -0.009,1.67775 -0.80304,4.56808 -1.81711,6.61645 -1.66866,3.37056 -4.60637,6.02579 -8.053979,7.27953 -2.044184,0.74339 -6.196495,0.91438 -8.257051,0.34004 z"
       id="path124" />
    <path
       style="fill:#ff0000;stroke-width:0.263077"
       d="m 54.79038,182.54887 c -6.748247,-1.44584 -11.685592,-6.78711 -12.167821,-13.16329 -0.293956,-3.88676 1.098069,-7.53672 3.890005,-10.19977 3.921504,-3.74048 9.141364,-4.34722 14.467085,-1.68162 4.233546,2.11896 8.000473,6.53041 11.443683,13.4017 l 1.667131,3.32694 -1.288173,1.5235 c -3.062698,3.62222 -7.059025,5.99969 -11.52808,6.85824 -2.392847,0.4597 -4.113001,0.44225 -6.48383,-0.0657 z"
       id="path126" />
    <path
       style="fill:#ff0000;stroke-width:0.263077"
       d="m 68.992333,157.28967 c -10.873803,-0.68224 -17.916101,-4.70252 -20.657044,-11.79261 -0.811068,-2.09801 -0.861406,-6.11257 -0.103909,-8.2869 l 0.504081,-1.44692 1.186011,0.0811 c 1.940375,0.13274 3.584514,-0.39483 8.021658,-2.574 4.260369,-2.09234 5.85062,-2.63712 7.697959,-2.63712 1.497977,0 3.490807,0.66816 4.494745,1.50701 l 0.880422,0.73564 -3.813424,3.70392 c -4.411267,4.28458 -5.029607,5.23621 -4.866606,7.4897 0.315482,4.36147 5.699786,5.97697 9.31489,2.79483 3.436475,-3.02491 3.864175,-9.39762 0.880845,-13.12457 l -0.777377,-0.97114 1.512713,-1.15619 c 1.440026,-1.10064 3.76023,-2.55767 4.072894,-2.55767 0.08044,0 0.227326,1.09506 0.326406,2.43347 0.09908,1.3384 0.477139,5.27467 0.840134,8.74728 0.362998,3.47261 0.724679,8.77031 0.803733,11.77266 l 0.143735,5.45883 -4.57324,-0.0474 c -2.515285,-0.0261 -5.165166,-0.0846 -5.888626,-0.12995 z"
       id="path128" />
    <path
       style="fill:#ff0000;stroke-width:0.263077"
       d="m 47.510631,134.24925 c -0.918739,-0.77664 -1.274394,-1.52882 -1.274394,-2.69523 0,-1.53873 0.362372,-1.98331 1.378917,-1.69177 0.469567,0.13467 1.350686,0.24486 1.958042,0.24486 1.354896,0 1.585105,0.31224 0.922636,1.2514 -0.279978,0.39692 -0.822187,1.34318 -1.204911,2.10281 -0.382723,0.75964 -0.782655,1.38057 -0.888737,1.37985 -0.106081,-7.4e-4 -0.50728,-0.26708 -0.891553,-0.59192 z"
       id="path130" />
    <path
       style="fill:#ff0000;stroke-width:0.263077"
       d="m 45.215921,128.45923 c -0.63352,-0.32355 -1.597098,-1.03305 -2.141285,-1.57667 -3.248173,-3.24476 -2.19937,-7.90264 1.867409,-8.2934 3.20092,-0.30757 5.597782,3.10626 4.32301,6.15722 -0.282402,0.67588 -2.735908,4.3403 -2.88225,4.30477 -0.0083,-0.002 -0.533364,-0.26837 -1.166884,-0.59192 z"
       id="path132" />
    <path
       style="fill:#ff0000;stroke-width:0.263077"
       d="m 54.786215,112.2303 c -5.012347,-1.25008 -7.437927,-6.00034 -5.293711,-10.36721 1.184416,-2.412181 3.431009,-3.793021 6.233383,-3.831281 2.312307,-0.0316 3.824135,0.62509 5.660257,2.458541 2.053096,2.0501 2.770031,3.79108 2.939836,7.13903 l 0.120863,2.38297 -1.68248,0.82829 c -2.925233,1.44009 -5.781279,1.93756 -7.978148,1.38966 z"
       id="path134" />
    <path
       style="fill:#ff0000;stroke-width:0.263077"
       d="m 134.89293,166.5248 c 0,-0.0825 0.36709,-0.68345 0.81575,-1.33556 0.70955,-1.03129 2.50051,-4.63362 2.94722,-5.92803 0.10039,-0.29089 0.58489,-0.50498 1.41746,-0.62635 0.69572,-0.10142 6.00031,-0.98355 11.78799,-1.96032 l 10.52306,-1.77592 0.20211,1.0869 c 0.11116,0.59779 0.17035,1.56044 0.13153,2.13921 l -0.0706,1.0523 -3.28845,0.15889 c -4.81847,0.23281 -7.6396,1.0082 -16.1792,4.4469 -3.36781,1.35614 -7.6551,2.89188 -8.07317,2.89188 -0.11755,0 -0.21373,-0.0674 -0.21373,-0.1499 z"
       id="path136" />
    <path
       style="fill:#ff0000;stroke-width:0.263077"
       d="m 127.88108,198.74509 c -4.69598,-0.78455 -8.22519,-3.83116 -9.05207,-7.81421 -0.59107,-2.84711 0.56335,-6.04196 3.0883,-8.54688 3.12835,-3.10354 7.24136,-4.48713 14.65551,-4.93003 10.6203,-0.63443 12.5874,-0.9668 16.34083,-2.76103 5.05775,-2.41772 8.4611,-6.89642 9.79138,-12.88514 0.22498,-1.01285 0.44567,-1.88448 0.4904,-1.93695 0.17523,-0.20557 2.9597,0.59955 4.56498,1.31994 2.3394,1.04982 4.29916,2.63352 5.51857,4.45961 2.72241,4.07684 2.58062,8.68083 -0.40579,13.17614 -2.77695,4.18002 -6.55707,6.49709 -16.67108,10.21872 -3.19775,1.17665 -7.21087,2.93108 -10.65459,4.65789 -6.62665,3.32281 -9.32564,4.39802 -12.37461,4.92971 -2.50685,0.43717 -3.25226,0.45296 -5.29183,0.11223 z"
       id="path138" />
    <g
       aria-label="This Is The Nebula"
       id="text157"
       style="font-style:normal;font-weight:normal;font-size:19.7556px;line-height:1.25;font-family:sans-serif;fill:#241c1c;fill-opacity:1;stroke:none;stroke-width:0.304487"
       transform="matrix(0.93213293,0,0,1,230.58433,107.78829)">
      <path
         d="m -222.32682,-7.4601721 7.55658,6.52506441 q 0.22634,0.19543671 0.43141,0.1940926 0.20508,-0.001344 0.50505,-0.20113776 l 0.23363,0.20174112 -2.68567,3.11024663 -0.23364,-0.2017412 q 0.15395,-0.3258818 0.1254,-0.528967 -0.0286,-0.2030853 -0.25489,-0.398522 l -7.55659,-6.5250644 -2.67307,3.0956445 q -0.18913,0.2190315 -0.18778,0.42411 -0.006,0.1987741 0.19383,0.4987434 l -0.20174,0.2336335 -2.57727,-2.2254567 0.20174,-0.2336336 q 0.33949,0.1529517 0.53627,0.1316977 0.20309,-0.028555 0.39222,-0.2475865 l 7.21855,-8.3597006 q 0.19543,-0.226332 0.19409,-0.431411 -0.001,-0.205078 -0.20844,-0.511352 l 0.20174,-0.233633 2.57727,2.225456 -0.20174,0.233634 q -0.32588,-0.153948 -0.52166,-0.119089 -0.20309,0.02855 -0.39853,0.254887 z"
         style="font-style:normal;font-variant:normal;font-weight:normal;font-stretch:normal;font-size:19.7556px;font-family:'Copperplate Gothic Bold';-inkscape-font-specification:'Copperplate Gothic Bold, ';fill:#241c1c;stroke-width:0.304487"
         id="path243" />
      <path
         d="m -206.1283,-14.538849 -4.50268,4.009229 2.46969,2.7736482 q 0.19885,0.2233327 0.40877,0.2559988 0.20349,0.025462 0.53341,-0.1262228 l 0.1732,0.1945156 -2.8529,2.5402476 -0.17961,-0.2017198 q 0.19442,-0.2893554 0.18622,-0.5016349 -9.8e-4,-0.2186943 -0.19984,-0.442027 l -5.87593,-6.5991207 q -0.19885,-0.223333 -0.40235,-0.248795 -0.2035,-0.02546 -0.53341,0.126223 l -0.17962,-0.20172 2.8529,-2.540248 0.17961,0.20172 q -0.19521,0.302975 -0.18701,0.515254 0.002,0.205075 0.20063,0.428408 l 2.10404,2.363004 4.50268,-4.009229 -2.10404,-2.363004 q -0.19886,-0.223333 -0.40236,-0.248795 -0.19629,-0.03188 -0.53341,0.126223 l -0.17961,-0.20172 2.85289,-2.540247 0.17961,0.20172 q -0.1952,0.302974 -0.18701,0.515253 0.002,0.205076 0.20063,0.428408 l 5.87593,6.599121 q 0.19886,0.223333 0.40877,0.255999 0.20349,0.02546 0.53341,-0.126223 l 0.1732,0.194516 -2.8529,2.540248 -0.17961,-0.20172 q 0.19442,-0.289356 0.18623,-0.501635 -9.9e-4,-0.218694 -0.19985,-0.442027 z"
         style="font-style:normal;font-variant:normal;font-weight:normal;font-stretch:normal;font-size:19.7556px;font-family:'Copperplate Gothic Bold';-inkscape-font-specification:'Copperplate Gothic Bold, ';fill:#241c1c;stroke-width:0.304487"
         id="path245" />
      <path
         d="m -202.21574,-24.014107 5.21793,7.130785 q 0.17659,0.241326 0.38242,0.293916 0.20013,0.04481 0.54304,-0.07464 l 0.1538,0.210187 -3.08274,2.255787 -0.1595,-0.217971 q 0.2212,-0.269438 0.23334,-0.481528 0.0199,-0.217786 -0.15666,-0.459112 l -5.21793,-7.130785 q -0.17659,-0.241325 -0.37672,-0.286131 -0.20012,-0.04481 -0.54303,0.07464 l -0.1595,-0.217971 3.08274,-2.255788 0.1595,0.217972 q -0.22329,0.282919 -0.23543,0.495008 -0.0178,0.204306 0.15874,0.445631 z"
         style="font-style:normal;font-variant:normal;font-weight:normal;font-stretch:normal;font-size:19.7556px;font-family:'Copperplate Gothic Bold';-inkscape-font-specification:'Copperplate Gothic Bold, ';fill:#241c1c;stroke-width:0.304487"
         id="path247" />
      <path
         d="m -190.6405,-31.422337 0.19506,2.827813 -0.26297,0.0131 q -0.16535,-0.27201 -0.43366,-0.323395 -0.72539,-0.134763 -1.80569,0.149428 -1.0803,0.284191 -2.01997,0.855424 -0.79954,0.486049 -1.28245,1.084414 -0.6948,0.862635 -0.324,1.472597 0.24553,0.403894 0.77938,0.316429 0.52884,-0.09571 1.81714,-0.743407 l 1.36248,-0.692797 q 1.78642,-0.905355 2.99732,-0.918989 0.67496,-0.0039 1.29707,0.295231 0.77971,0.372675 1.25073,1.147491 0.85685,1.409507 0.0835,2.997203 -0.73566,1.51965 -2.80458,2.777365 -2.08541,1.267737 -4.56686,1.568318 -0.16695,0.02247 -0.25762,0.07759 -0.16486,0.100217 -0.18473,0.383226 l -0.25617,0.04284 -0.42505,-2.834752 0.25617,-0.04284 q 0.0301,0.04946 0.0401,0.06594 0.13028,0.214311 0.38533,0.262464 0.63261,0.112139 1.81183,-0.232182 1.1742,-0.352563 2.16333,-0.953861 0.87372,-0.531147 1.42581,-1.182852 0.68688,-0.801378 0.30606,-1.427825 -0.30566,-0.502807 -1.0194,-0.339854 -0.47583,0.108636 -1.56129,0.644318 l -1.35924,0.679543 q -1.09694,0.553947 -1.72938,0.757788 -0.63243,0.203841 -1.1999,0.198857 -0.72797,-0.009 -1.37046,-0.397375 -0.64248,-0.388359 -1.05337,-1.064263 -0.92199,-1.516663 -0.10569,-3.107917 0.74601,-1.446918 2.49346,-2.509211 0.94792,-0.576244 1.89423,-0.858004 0.94954,-0.295014 2.40773,-0.458972 0.43316,-0.04883 0.56504,-0.129005 0.13189,-0.08017 0.22772,-0.386783 z"
         style="font-style:normal;font-variant:normal;font-weight:normal;font-stretch:normal;font-size:19.7556px;font-family:'Copperplate Gothic Bold';-inkscape-font-specification:'Copperplate Gothic Bold, ';fill:#241c1c;stroke-width:0.304487"
         id="path249" />
      <path
         d="m -179.09186,-27.207657 -4.44785,-10.225647 q -0.11543,-0.265372 -0.30083,-0.353037 -0.18541,-0.08766 -0.54233,-0.03761 l -0.12312,-0.283063 3.76827,-1.639087 0.12313,0.283063 q -0.28382,0.218126 -0.34225,0.422369 -0.0623,0.195399 0.0531,0.46077 l 4.44785,10.225648 q 0.11928,0.274217 0.30853,0.370728 0.19425,0.08382 0.53847,0.02876 l 0.12313,0.283062 -3.76828,1.639088 -0.12312,-0.283063 q 0.27997,-0.226972 0.34225,-0.42237 0.0623,-0.195398 -0.057,-0.469616 z"
         style="font-style:normal;font-variant:normal;font-weight:normal;font-stretch:normal;font-size:19.7556px;font-family:'Copperplate Gothic Bold';-inkscape-font-specification:'Copperplate Gothic Bold, ';fill:#241c1c;stroke-width:0.304487"
         id="path251" />
      <path
         d="m -166.80309,-41.170803 -0.43887,2.800351 -0.25929,-0.04572 q -0.10071,-0.301978 -0.35086,-0.411758 -0.67724,-0.292746 -1.79369,-0.255985 -1.11645,0.03676 -2.15964,0.384657 -0.88764,0.296015 -1.49155,0.771966 -0.86928,0.686467 -0.64345,1.36363 0.14953,0.448391 0.68946,0.48187 0.53688,0.02433 1.93698,-0.320566 l 1.48245,-0.372359 q 1.94305,-0.48529 3.12665,-0.22922 0.65892,0.146328 1.1989,0.576362 0.67727,0.53678 0.96413,1.396959 0.52184,1.564795 -0.58527,2.940692 -1.05526,1.317931 -3.35212,2.083909 -2.31517,0.772082 -4.8013,0.513144 -0.16777,-0.01523 -0.26843,0.01834 -0.18302,0.06104 -0.26534,0.332534 l -0.25929,-0.01522 0.21618,-2.858278 0.25929,0.01522 q 0.0183,0.05491 0.0244,0.07321 0.0793,0.237922 0.31729,0.341603 0.59182,0.250052 1.81808,0.17667 1.22321,-0.08253 2.32131,-0.448738 0.96999,-0.323481 1.65321,-0.836048 0.84793,-0.628506 0.616,-1.323971 -0.18615,-0.558201 -0.91825,-0.558099 -0.48807,6.9e-5 -1.6655,0.280873 l -1.47635,0.360157 q -1.19268,0.296058 -1.85461,0.354109 -0.66193,0.05805 -1.21408,-0.07304 -0.70772,-0.170725 -1.24772,-0.692272 -0.54,-0.521547 -0.79024,-1.271916 -0.56151,-1.683756 0.58831,-3.053557 1.04917,-1.24472 2.98915,-1.891682 1.05234,-0.350947 2.03762,-0.415143 0.99138,-0.0764 2.44951,0.08812 0.43316,0.04875 0.57958,-8.2e-5 0.14641,-0.04883 0.30804,-0.326438 z"
         style="font-style:normal;font-variant:normal;font-weight:normal;font-stretch:normal;font-size:19.7556px;font-family:'Copperplate Gothic Bold';-inkscape-font-specification:'Copperplate Gothic Bold, ';fill:#241c1c;stroke-width:0.304487"
         id="path253" />
      <path
         d="m -151.78517,-45.440992 1.53984,9.864449 q 0.0461,0.295457 0.20335,0.427122 0.15724,0.131665 0.51523,0.173414 l 0.0476,0.304988 -4.06015,0.633788 -0.0476,-0.304988 q 0.32823,-0.148868 0.43786,-0.322191 0.10963,-0.173323 0.0635,-0.468779 l -1.53984,-9.864449 -4.04109,0.630812 q -0.28592,0.04463 -0.41759,0.201869 -0.13315,0.147705 -0.1749,0.505694 l -0.30499,0.04761 -0.52518,-3.364397 0.30499,-0.04761 q 0.15989,0.336277 0.32368,0.447392 0.17332,0.109628 0.45925,0.065 l 10.91284,-1.703489 q 0.29546,-0.04612 0.42712,-0.203357 0.13167,-0.157237 0.17193,-0.524756 l 0.30499,-0.04761 0.52518,3.364397 -0.30499,0.04761 q -0.14887,-0.328234 -0.3207,-0.428331 -0.17332,-0.109628 -0.46878,-0.06351 z"
         style="font-style:normal;font-variant:normal;font-weight:normal;font-stretch:normal;font-size:19.7556px;font-family:'Copperplate Gothic Bold';-inkscape-font-specification:'Copperplate Gothic Bold, ';fill:#241c1c;stroke-width:0.304487"
         id="path255" />
      <path
         d="m -134.8569,-40.359837 -6.02714,0.14681 0.0904,3.71272 q 0.007,0.298946 0.14629,0.459596 0.13876,0.151006 0.48851,0.248628 l 0.006,0.260372 -3.81879,0.09302 -0.007,-0.270016 q 0.3354,-0.09501 0.46642,-0.262239 0.14066,-0.167462 0.13338,-0.466408 l -0.21517,-8.833381 q -0.007,-0.298946 -0.14605,-0.449952 -0.13876,-0.151007 -0.48851,-0.248628 l -0.007,-0.270016 3.8188,-0.09302 0.007,0.270016 q -0.34482,0.104891 -0.47583,0.272117 -0.13125,0.157584 -0.12397,0.45653 l 0.077,3.163045 6.02714,-0.14681 -0.077,-3.163045 q -0.007,-0.298946 -0.14605,-0.449952 -0.12912,-0.151242 -0.48851,-0.248628 l -0.007,-0.270016 3.8188,-0.09302 0.007,0.270016 q -0.34482,0.104891 -0.47583,0.272117 -0.13125,0.157584 -0.12397,0.45653 l 0.21517,8.833381 q 0.007,0.298946 0.14628,0.459596 0.13877,0.151006 0.48851,0.248628 l 0.006,0.260372 -3.81879,0.09302 -0.007,-0.270016 q 0.33541,-0.09501 0.46642,-0.262239 0.14066,-0.167462 0.13338,-0.466408 z"
         style="font-style:normal;font-variant:normal;font-weight:normal;font-stretch:normal;font-size:19.7556px;font-family:'Copperplate Gothic Bold';-inkscape-font-specification:'Copperplate Gothic Bold, ';fill:#241c1c;stroke-width:0.304487"
         id="path257" />
      <path
         d="m -125.96968,-39.850589 -0.27207,2.619346 6.82181,0.708569 q 0.29744,0.03089 0.4649,-0.08749 0.17707,-0.117383 0.30989,-0.46242 l 0.26865,0.0279 -0.33087,3.185431 -0.26865,-0.0279 q -0.0515,-0.344783 -0.19963,-0.505645 -0.14916,-0.151267 -0.44659,-0.182161 l -10.00725,-1.039435 0.0279,-0.268651 q 0.34478,-0.05147 0.49605,-0.200629 0.16086,-0.148161 0.19175,-0.445595 l 0.91287,-8.788719 q 0.0309,-0.297435 -0.0875,-0.464902 -0.11838,-0.167467 -0.45283,-0.308885 l 0.0279,-0.268651 9.7098,1.008541 q 0.30703,0.03189 0.4745,-0.08649 0.17706,-0.117383 0.30889,-0.452826 l 0.25905,0.02691 -0.33086,3.185431 -0.25906,-0.02691 q -0.0591,-0.364968 -0.20823,-0.516236 -0.13956,-0.15027 -0.44659,-0.182161 l -6.52438,-0.677676 -0.24516,2.360289 4.04895,0.420558 q 0.29744,0.03089 0.4649,-0.08749 0.17707,-0.117384 0.31848,-0.451829 l 0.25906,0.02691 -0.32289,3.108674 -0.25906,-0.02691 q -0.0601,-0.355374 -0.20922,-0.506641 -0.13857,-0.159866 -0.4456,-0.191756 z"
         style="font-style:normal;font-variant:normal;font-weight:normal;font-stretch:normal;font-size:19.7556px;font-family:'Copperplate Gothic Bold';-inkscape-font-specification:'Copperplate Gothic Bold, ';fill:#241c1c;stroke-width:0.304487"
         id="path259" />
      <path
         d="m -106.18815,-40.989312 -2.31203,7.66533 q -0.0863,0.286296 -0.002,0.473059 0.0847,0.186764 0.38934,0.379398 l -0.0891,0.295531 -3.70337,-1.117016 0.0891,-0.295531 q 0.36033,0.0079 0.53419,-0.10084 0.17386,-0.108767 0.26022,-0.395062 l 3.22012,-10.676051 q 0.0836,-0.27706 -10e-4,-0.463824 -0.0847,-0.186763 -0.38934,-0.379397 l 0.0891,-0.295531 4.2852,1.292507 -0.0891,0.295531 q -0.42776,-0.01819 -0.52526,0.305045 -0.0669,0.221648 0.11096,0.567469 l 4.7731,9.328808 2.256316,-7.480624 q 0.08357,-0.27706 -0.0012,-0.463824 -0.08473,-0.186763 -0.389342,-0.379397 l 0.08914,-0.295531 3.703371,1.117016 -0.08914,0.29553 q -0.360328,-0.0079 -0.534192,0.10084 -0.173864,0.108768 -0.257431,0.385828 l -3.220124,10.67605 q -0.08635,0.286296 -0.0016,0.473059 0.08473,0.186764 0.389342,0.379398 l -0.08914,0.295531 -3.97119,-1.197797 0.0891,-0.295531 q 0.41295,0.03388 0.50766,-0.280126 0.0557,-0.184706 -0.25754,-0.782966 z"
         style="font-style:normal;font-variant:normal;font-weight:normal;font-stretch:normal;font-size:19.7556px;font-family:'Copperplate Gothic Bold';-inkscape-font-specification:'Copperplate Gothic Bold, ';fill:#241c1c;stroke-width:0.304487"
         id="path261" />
      <path
         d="m -90.909386,-30.921388 -1.111485,2.387382 6.217687,2.894747 q 0.271094,0.126212 0.468013,0.06892 0.205664,-0.05322 0.443755,-0.336067 l 0.24486,0.113999 -1.351696,2.903335 -0.24486,-0.113998 q 0.06379,-0.342717 -0.0238,-0.543105 -0.09167,-0.191643 -0.36276,-0.317856 l -9.121022,-4.246443 0.113998,-0.244859 q 0.342717,0.06379 0.53436,-0.02787 0.200388,-0.08759 0.326601,-0.358688 l 3.729378,-8.010409 q 0.126213,-0.271095 0.06892,-0.468014 -0.05729,-0.196919 -0.327322,-0.439683 l 0.113998,-0.24486 8.849928,4.12023 q 0.279839,0.130284 0.476758,0.073 0.205664,-0.05322 0.439684,-0.327322 l 0.236114,0.109927 -1.351696,2.903336 -0.236114,-0.109927 q 0.06319,-0.364278 -0.02848,-0.555921 -0.08292,-0.187572 -0.36276,-0.317856 l -5.946592,-2.768534 -1.001558,2.151267 3.690385,1.718119 q 0.271095,0.126213 0.468014,0.06893 0.205664,-0.05322 0.448428,-0.323251 l 0.236115,0.109927 -1.319125,2.833376 -0.236115,-0.109927 q 0.05912,-0.355533 -0.03255,-0.547176 -0.07885,-0.196317 -0.358689,-0.326601 z"
         style="font-style:normal;font-variant:normal;font-weight:normal;font-stretch:normal;font-size:19.7556px;font-family:'Copperplate Gothic Bold';-inkscape-font-specification:'Copperplate Gothic Bold, ';fill:#241c1c;stroke-width:0.304487"
         id="path263" />
      <path
         d="m -72.796926,-22.321618 q 0.484062,0.735579 0.608387,1.245912 0.228249,0.962365 -0.3963,1.959815 -0.839558,1.340836 -2.308974,1.433696 -1.303762,0.08277 -2.881696,-0.905244 l -6.516133,-4.080046 0.143339,-0.228923 q 0.332228,0.105591 0.533716,0.03827 0.209665,-0.0622 0.368362,-0.315651 l 4.689238,-7.489056 q 0.158697,-0.253451 0.126143,-0.455933 -0.03255,-0.202483 -0.270571,-0.47671 l 0.143339,-0.228923 6.409847,4.013496 q 1.68422,1.054566 2.090274,2.151026 0.434633,1.159878 -0.261586,2.271791 -0.40954,0.654066 -0.964952,0.886739 -0.547236,0.237794 -1.512433,0.179739 z m -5.196863,-4.369352 3.327561,2.083537 q 0.784879,0.491448 1.234774,0.499999 0.455015,3.74e-4 0.76217,-0.490175 0.302036,-0.482374 0.09786,-0.883364 -0.190876,-0.404046 -0.983931,-0.900614 l -3.327561,-2.083537 z m -2.54427,4.063385 3.409319,2.134729 q 1.651517,1.03409 2.404047,-0.167756 0.752531,-1.201847 -0.898986,-2.235936 l -3.409319,-2.13473 z"
         style="font-style:normal;font-variant:normal;font-weight:normal;font-stretch:normal;font-size:19.7556px;font-family:'Copperplate Gothic Bold';-inkscape-font-specification:'Copperplate Gothic Bold, ';fill:#241c1c;stroke-width:0.304487"
         id="path265" />
      <path
         d="m -58.01188,-15.882444 -3.623649,4.426107 q -1.240473,1.5151766 -2.418104,1.7353928 -1.885563,0.3387713 -4.550184,-1.8427508 -1.783877,-1.460459 -2.434993,-2.903599 -0.467308,-1.043323 -0.159552,-2.013105 0.281262,-0.891739 1.106208,-1.899369 l 3.623649,-4.426106 q 0.189432,-0.231382 0.182708,-0.436355 -0.0067,-0.204972 -0.208207,-0.507061 l 0.1711,-0.20899 2.963178,2.425951 -0.1711,0.20899 q -0.337272,-0.151457 -0.545649,-0.11012 -0.202267,0.03387 -0.391699,0.265254 l -3.29367,4.023055 q -0.574407,0.701609 -0.760519,1.172576 -0.178649,0.477078 -0.06817,0.966463 0.214846,0.986233 1.371754,1.933392 1.156908,0.94716 2.166146,0.963083 0.4941,0.0056 0.919058,-0.269842 0.424958,-0.275425 0.999364,-0.977034 l 3.293671,-4.023055 q 0.189432,-0.231381 0.182708,-0.436354 7.41e-4,-0.198862 -0.208207,-0.507061 l 0.1711,-0.20899 2.784044,2.279293 -0.1711,0.20899 q -0.329808,-0.145346 -0.538185,-0.104009 -0.202267,0.03387 -0.3917,0.265254 z"
         style="font-style:normal;font-variant:normal;font-weight:normal;font-stretch:normal;font-size:19.7556px;font-family:'Copperplate Gothic Bold';-inkscape-font-specification:'Copperplate Gothic Bold, ';fill:#241c1c;stroke-width:0.304487"
         id="path267" />
      <path
         d="m -58.925102,-5.7371118 4.196771,4.3552395 q 0.21419,0.222277 0.41853,0.2397077 0.204341,0.017431 0.534977,-0.153818 l 0.180722,0.1875462 -2.306124,2.222214 -0.180722,-0.18754617 q 0.183127,-0.31042452 0.166586,-0.52221699 -0.0098,-0.20484631 -0.224038,-0.42712329 l -6.418986,-6.66136315 0.194492,-0.1874157 q 0.296785,0.1828747 0.508578,0.1663328 0.218486,-0.0096 0.433816,-0.2170916 l 6.362679,-6.1311685 q 0.215331,-0.207496 0.232761,-0.411837 0.01743,-0.204341 -0.147124,-0.52803 l 0.194492,-0.187416 2.650593,2.750678 -0.194492,0.187415 q -0.310425,-0.183127 -0.522217,-0.166585 -0.204847,0.0098 -0.420178,0.217344 z"
         style="font-style:normal;font-variant:normal;font-weight:normal;font-stretch:normal;font-size:19.7556px;font-family:'Copperplate Gothic Bold';-inkscape-font-specification:'Copperplate Gothic Bold, ';fill:#241c1c;stroke-width:0.304487"
         id="path269" />
      <path
         d="m -47.614081,6.4263163 -2.995989,-3.9627604 -1.276164,0.263438 q -0.460732,0.09438 -0.653099,0.2398162 -0.369345,0.2792378 -0.09706,0.8473243 l -0.215451,0.1628887 -2.396791,-3.17020834 0.215451,-0.16288874 q 0.267231,0.25749313 0.502755,0.29710064 0.241341,0.0473022 0.771512,-0.0512036 l 8.750534,-1.6697286 q 0.495452,-0.0964427 0.764766,-0.30005366 0.315481,-0.2385156 0.166682,-0.8032192 l 0.215451,-0.1628888 2.530593,3.347186 -0.215451,0.1628888 q -0.489243,-0.2952234 -0.843199,-0.027621 -0.253924,0.191976 -0.477832,0.6635809 l -3.712228,7.9339605 q -0.304238,0.653266 -0.341782,0.923509 -0.02985,0.264425 0.147108,0.626446 l -0.207756,0.157072 -2.658577,-3.5164688 0.207756,-0.1570713 q 0.462776,0.4361623 0.84751,0.1452895 0.238535,-0.1803411 0.447054,-0.6403111 z m 0.736851,-1.5366096 1.697796,-3.4965929 -3.774627,0.749592 z"
         style="font-style:normal;font-variant:normal;font-weight:normal;font-stretch:normal;font-size:19.7556px;font-family:'Copperplate Gothic Bold';-inkscape-font-specification:'Copperplate Gothic Bold, ';fill:#241c1c;stroke-width:0.304487"
         id="path271" />
    </g>
    <g
       aria-label="7000k"
       id="text166"
       style="font-style:normal;font-weight:normal;font-size:16.9333px;line-height:1.25;font-family:sans-serif;fill:#000000;fill-opacity:1;stroke:none;stroke-width:0.264583"
       transform="translate(281.82899,-96.688876)">
      <g
         aria-label="7000K"
         id="text301"
         style="font-style:normal;font-weight:normal;font-size:19.7556px;line-height:1.25;font-family:sans-serif;fill:#000000;fill-opacity:1;stroke:none;stroke-width:0.0700042">
        <path
           d="m -196.86113,311.53417 -9.40514,9.28703 -3.97071,-1.13088 9.67541,-9.32038 -7.09718,-2.02131 0.75304,-2.64405 10.82668,3.08349 z"
           style="font-style:normal;font-variant:normal;font-weight:bold;font-stretch:normal;font-size:19.7556px;font-family:sans-serif;-inkscape-font-specification:'sans-serif Bold';stroke-width:0.0700042"
           id="path316" />
        <path
           d="m -184.89641,317.71396 q -0.26083,1.79464 -0.79211,3.16983 -0.5299,1.36563 -1.34901,2.17261 -0.84098,0.8233 -2.01768,1.13966 -1.17532,0.30682 -2.79814,0.071 -1.59418,-0.2317 -2.65124,-0.87271 -1.05706,-0.64101 -1.61795,-1.67779 -0.57044,-1.03818 -0.68429,-2.46813 -0.11246,-1.4395 0.14836,-3.23415 0.26916,-1.85192 0.79211,-3.16983 0.52296,-1.3179 1.36672,-2.16029 0.84236,-0.83284 2.03677,-1.13689 1.19441,-0.30404 2.75996,-0.0765 1.63236,0.23724 2.66894,0.88502 1.03797,0.63824 1.60563,1.6955 0.5609,1.03679 0.67613,2.4572 0.11663,1.41086 -0.1442,3.20551 z m -3.6943,-0.53692 q 0.37459,-2.57742 0.0268,-3.73919 -0.34638,-1.17132 -1.52054,-1.34197 -1.17416,-0.17065 -1.83965,0.85361 -0.6641,1.01471 -1.04146,3.61122 -0.36766,2.52969 -0.0145,3.72149 0.35316,1.1918 1.50823,1.35968 1.15507,0.16787 1.83287,-0.87409 0.67781,-1.04197 1.04824,-3.59075 z"
           style="font-style:normal;font-variant:normal;font-weight:bold;font-stretch:normal;font-size:19.7556px;font-family:sans-serif;-inkscape-font-specification:'sans-serif Bold';stroke-width:0.0700042"
           id="path318" />
        <path
           d="m -171.80323,317.92828 q -0.0183,1.81341 -0.36082,3.24731 -0.34239,1.42427 -1.04615,2.3336 -0.72325,0.92842 -1.84704,1.3994 -1.12369,0.46133 -2.76347,0.44476 -1.61085,-0.0163 -2.74418,-0.51008 -1.13333,-0.4938 -1.82791,-1.44621 -0.70424,-0.9525 -1.00841,-2.35436 -0.30407,-1.4115 -0.28574,-3.22491 0.0189,-1.87129 0.36082,-3.24732 0.3419,-1.37603 1.06534,-2.32375 0.72335,-0.93807 1.86633,-1.39921 1.14298,-0.46114 2.72489,-0.44515 1.64943,0.0167 2.76337,0.51992 1.11404,0.4936 1.81808,1.4654 0.69458,0.95241 0.99885,2.34462 0.30437,1.38257 0.28604,3.19598 z m -3.73292,-0.0377 q 0.0263,-2.60437 -0.47379,-3.70916 -0.50001,-1.11443 -1.68644,-1.12642 -1.18644,-0.012 -1.70888,1.0921 -0.52234,1.09445 -0.54886,3.71811 -0.0259,2.55614 0.48362,3.68996 0.50946,1.13382 1.6766,1.14562 1.16715,0.0118 1.69943,-1.11149 0.53228,-1.12329 0.55832,-3.69872 z"
           style="font-style:normal;font-variant:normal;font-weight:bold;font-stretch:normal;font-size:19.7556px;font-family:sans-serif;-inkscape-font-specification:'sans-serif Bold';stroke-width:0.0700042"
           id="path320" />
        <path
           d="m -158.79808,316.38873 q 0.22424,1.79959 0.0765,3.26641 -0.14893,1.45725 -0.72482,2.45249 -0.59265,1.01677 -1.64339,1.63375 -1.05194,0.6074 -2.67922,0.81017 -1.59857,0.19919 -2.78774,-0.13868 -1.18916,-0.33787 -2.00483,-1.18888 -0.82524,-0.84981 -1.31407,-2.19843 -0.49003,-1.35819 -0.71427,-3.15777 -0.23139,-1.85702 -0.0765,-3.26641 0.15489,-1.40939 0.74515,-2.44531 0.59146,-1.02634 1.66254,-1.63613 1.07108,-0.60979 2.64093,-0.8054 1.63686,-0.20396 2.80807,0.14586 1.17002,0.34026 1.99765,1.20922 0.81566,0.85101 1.30331,2.19005 0.48645,1.32947 0.71069,3.12906 z m -3.70447,0.4616 q -0.32205,-2.58451 -0.96535,-3.61253 -0.6445,-1.0376 -1.82189,-0.89089 -1.17738,0.14671 -1.54755,1.31074 -0.37135,1.15445 -0.0469,3.75811 0.31608,2.53665 0.97254,3.59219 0.65645,1.05555 1.8147,0.91123 1.15824,-0.14433 1.53559,-1.32869 0.37735,-1.18437 0.0589,-3.74016 z"
           style="font-style:normal;font-variant:normal;font-weight:bold;font-stretch:normal;font-size:19.7556px;font-family:sans-serif;-inkscape-font-specification:'sans-serif Bold';stroke-width:0.0700042"
           id="path322" />
        <path
           d="m -142.08946,319.45909 -4.38722,1.18102 -5.63949,-4.43573 -0.56501,1.24097 1.22114,4.53626 -3.57684,0.96287 -3.73363,-13.86958 3.57685,-0.96287 1.69003,6.27811 3.26538,-7.61208 4.14504,-1.11583 -3.6935,7.87717 z"
           style="font-style:normal;font-variant:normal;font-weight:bold;font-stretch:normal;font-size:19.7556px;font-family:sans-serif;-inkscape-font-specification:'sans-serif Bold';stroke-width:0.0700042"
           id="path324" />
      </g>
    </g>
  </g>
</svg>
